<svg width="20" height="20" viewBox="0 0 20 20" fill="none" xmlns="http://www.w3.org/2000/svg">
<path d="M14.0899 0C17.6199 0 19.9999 2.271 19.9999 5.66V14.33C19.9999 17.72 17.6199 20 14.0899 20H5.91988C2.37988 20 -0.00012207 17.72 -0.00012207 14.33V5.66C-0.00012207 2.271 2.37988 0 5.91988 0H14.0899ZM10.2099 5.72C9.91988 5.43 9.43988 5.43 9.14988 5.72L5.37988 9.47C5.09988 9.75 5.09988 10.25 5.37988 10.53L9.14988 14.28C9.43988 14.57 9.91988 14.57 10.2099 14.28C10.4999 13.98 10.4999 13.51 10.2099 13.21L7.72988 10.75H14.0799C14.4999 10.75 14.8299 10.41 14.8299 10C14.8299 9.58 14.4999 9.25 14.0799 9.25H7.72988L10.2099 6.78C10.3499 6.64 10.4299 6.44 10.4299 6.25C10.4299 6.061 10.3499 5.87 10.2099 5.72Z" fill="#878787"/>
</svg>
