<svg width="13" height="13" viewBox="0 0 13 13" fill="none" xmlns="http://www.w3.org/2000/svg">
<path d="M4.71251 8.42959L2.95185 6.66893C2.85698 6.57406 2.72831 6.52076 2.59414 6.52076C2.45997 6.52076 2.3313 6.57406 2.23643 6.66893C2.14156 6.7638 2.08826 6.89248 2.08826 7.02664C2.08826 7.09308 2.10134 7.15886 2.12676 7.22024C2.15219 7.28161 2.18945 7.33738 2.23643 7.38436L4.35734 9.50527C4.55522 9.70315 4.87488 9.70315 5.07276 9.50527L10.441 4.13703C10.5359 4.04216 10.5892 3.91349 10.5892 3.77932C10.5892 3.64515 10.5359 3.51648 10.441 3.42161C10.3461 3.32674 10.2174 3.27344 10.0833 3.27344C9.94911 3.27344 9.82044 3.32674 9.72557 3.42161L4.71251 8.42959Z" fill="white"/>
</svg>
