<svg width="26" height="26" viewBox="0 0 26 26" fill="none" xmlns="http://www.w3.org/2000/svg">
<rect width="26" height="26" rx="8" fill="#4C5EC4"/>
<path d="M10.75 16.1275L8.14749 13.525C8.00725 13.3848 7.81706 13.306 7.61874 13.306C7.42042 13.306 7.23022 13.3848 7.08999 13.525C6.94975 13.6652 6.87097 13.8554 6.87097 14.0537C6.87097 14.1519 6.89031 14.2492 6.92789 14.3399C6.96547 14.4306 7.02055 14.5131 7.08999 14.5825L10.225 17.7175C10.5175 18.01 10.99 18.01 11.2825 17.7175L19.2175 9.7825C19.3577 9.64226 19.4365 9.45207 19.4365 9.25375C19.4365 9.05543 19.3577 8.86523 19.2175 8.725C19.0773 8.58476 18.8871 8.50598 18.6887 8.50598C18.4904 8.50598 18.3002 8.58476 18.16 8.725L10.75 16.1275Z" fill="white"/>
</svg>
