<svg width="16" height="11" viewBox="0 0 16 11" fill="none" xmlns="http://www.w3.org/2000/svg">
<path d="M7.16667 10.5C6.93056 10.5 6.73278 10.42 6.57333 10.26C6.41333 10.1006 6.33333 9.90278 6.33333 9.66667C6.33333 9.43056 6.41333 9.23278 6.57333 9.07333C6.73278 8.91333 6.93056 8.83333 7.16667 8.83333H8.83333C9.06944 8.83333 9.2675 8.91333 9.4275 9.07333C9.58694 9.23278 9.66667 9.43056 9.66667 9.66667C9.66667 9.90278 9.58694 10.1006 9.4275 10.26C9.2675 10.42 9.06944 10.5 8.83333 10.5H7.16667ZM1.33333 2.16667C1.09722 2.16667 0.899445 2.08694 0.74 1.9275C0.58 1.7675 0.5 1.56944 0.5 1.33333C0.5 1.09722 0.58 0.899167 0.74 0.739167C0.899445 0.579722 1.09722 0.5 1.33333 0.5H14.6667C14.9028 0.5 15.1006 0.579722 15.26 0.739167C15.42 0.899167 15.5 1.09722 15.5 1.33333C15.5 1.56944 15.42 1.7675 15.26 1.9275C15.1006 2.08694 14.9028 2.16667 14.6667 2.16667H1.33333ZM3.83333 6.33333C3.59722 6.33333 3.39917 6.25333 3.23917 6.09333C3.07972 5.93389 3 5.73611 3 5.5C3 5.26389 3.07972 5.06583 3.23917 4.90583C3.39917 4.74639 3.59722 4.66667 3.83333 4.66667H12.1667C12.4028 4.66667 12.6006 4.74639 12.76 4.90583C12.92 5.06583 13 5.26389 13 5.5C13 5.73611 12.92 5.93389 12.76 6.09333C12.6006 6.25333 12.4028 6.33333 12.1667 6.33333H3.83333Z" fill="#6FC8B4"/>
</svg>
