<svg width="15" height="16" viewBox="0 0 15 16" fill="none" xmlns="http://www.w3.org/2000/svg">
<path fill-rule="evenodd" clip-rule="evenodd" d="M3.6621 3.97475C3.95502 3.68188 4.4299 3.68193 4.72276 3.97485L7.38473 6.63732L10.0478 3.97475C10.3407 3.68188 10.8156 3.68193 11.1085 3.97485C11.4013 4.26777 11.4013 4.74264 11.1084 5.03551L8.44564 7.69773L11.1084 10.3605C11.4013 10.6534 11.4013 11.1283 11.1084 11.4212C10.8155 11.7141 10.3407 11.7141 10.0478 11.4212L7.38524 8.75864L4.72271 11.4212C4.42982 11.7141 3.95495 11.7141 3.66205 11.4212C3.36916 11.1283 3.36916 10.6534 3.66205 10.3605L6.32432 7.69823L3.662 5.03541C3.36914 4.74249 3.36918 4.26761 3.6621 3.97475Z" fill="white"/>
</svg>
