<svg width="19" height="20" viewBox="0 0 19 20" fill="none" xmlns="http://www.w3.org/2000/svg">
<path d="M8.09002 11.41C8.50002 11.8 8.50002 12.44 8.09002 12.83C7.70002 13.22 7.06002 13.22 6.67002 12.83C5.73339 11.892 5.20732 10.6206 5.20732 9.29502C5.20732 7.96944 5.73339 6.69804 6.67002 5.76002L10.21 2.22002C11.148 1.28339 12.4194 0.757324 13.745 0.757324C15.0706 0.757324 16.342 1.28339 17.28 2.22002C18.2166 3.15804 18.7427 4.42944 18.7427 5.75502C18.7427 7.08059 18.2166 8.35199 17.28 9.29002L15.79 10.78C15.8 9.96002 15.67 9.14002 15.39 8.36002L15.86 7.88002C16.1404 7.6027 16.3629 7.27254 16.5148 6.90865C16.6667 6.54475 16.7449 6.15434 16.7449 5.76002C16.7449 5.36569 16.6667 4.97528 16.5148 4.61139C16.3629 4.24749 16.1404 3.91733 15.86 3.64002C15.5827 3.35968 15.2525 3.13712 14.8886 2.98524C14.5247 2.83335 14.1343 2.75514 13.74 2.75514C13.3457 2.75514 12.9553 2.83335 12.5914 2.98524C12.2275 3.13712 11.8973 3.35968 11.62 3.64002L8.09002 7.17002C7.80968 7.44733 7.58712 7.77749 7.43524 8.14139C7.28335 8.50528 7.20514 8.89569 7.20514 9.29002C7.20514 9.68434 7.28335 10.0747 7.43524 10.4386C7.58712 10.8025 7.80968 11.1327 8.09002 11.41ZM10.91 7.17002C11.3 6.78002 11.94 6.78002 12.33 7.17002C13.2666 8.10804 13.7927 9.37944 13.7927 10.705C13.7927 12.0306 13.2666 13.302 12.33 14.24L8.79002 17.78C7.85199 18.7166 6.58059 19.2427 5.25502 19.2427C3.92944 19.2427 2.65804 18.7166 1.72002 17.78C0.783394 16.842 0.257324 15.5706 0.257324 14.245C0.257324 12.9194 0.783394 11.648 1.72002 10.71L3.21002 9.22002C3.20002 10.04 3.33002 10.86 3.61002 11.65L3.14002 12.12C2.85968 12.3973 2.63712 12.7275 2.48524 13.0914C2.33335 13.4553 2.25514 13.8457 2.25514 14.24C2.25514 14.6343 2.33335 15.0247 2.48524 15.3886C2.63712 15.7525 2.85968 16.0827 3.14002 16.36C3.41733 16.6404 3.74749 16.8629 4.11139 17.0148C4.47528 17.1667 4.86569 17.2449 5.26002 17.2449C5.65434 17.2449 6.04475 17.1667 6.40865 17.0148C6.77254 16.8629 7.1027 16.6404 7.38002 16.36L10.91 12.83C11.1904 12.5527 11.4129 12.2225 11.5648 11.8586C11.7167 11.4947 11.7949 11.1043 11.7949 10.71C11.7949 10.3157 11.7167 9.92528 11.5648 9.56139C11.4129 9.19749 11.1904 8.86733 10.91 8.59002C10.8129 8.49901 10.7355 8.38904 10.6826 8.26692C10.6296 8.1448 10.6023 8.01311 10.6023 7.88002C10.6023 7.74692 10.6296 7.61523 10.6826 7.49311C10.7355 7.37099 10.8129 7.26102 10.91 7.17002Z" fill="#4C5EC4"/>
</svg>
