<svg width="21" height="21" viewBox="0 0 21 21" fill="none" xmlns="http://www.w3.org/2000/svg">
<path d="M8.75156 3.01855C7.53791 3.01855 6.35152 3.37844 5.3424 4.05271C4.33329 4.72698 3.54678 5.68534 3.08234 6.80661C2.61789 7.92788 2.49637 9.16169 2.73314 10.352C2.96992 11.5424 3.55435 12.6357 4.41253 13.4939C5.27071 14.3521 6.3641 14.9365 7.55443 15.1733C8.74476 15.4101 9.97857 15.2886 11.0998 14.8241C12.2211 14.3597 13.1795 13.5732 13.8537 12.564C14.528 11.5549 14.8879 10.3685 14.8879 9.15488C14.8878 7.52746 14.2413 5.96672 13.0905 4.81596C11.9397 3.6652 10.379 3.01866 8.75156 3.01855Z" stroke="#878787" stroke-miterlimit="10"/>
<path d="M13.3296 13.733L17.6151 18.0186" stroke="#878787" stroke-miterlimit="10" stroke-linecap="round"/>
</svg>
