<svg width="9" height="11" viewBox="0 0 9 11" fill="none" xmlns="http://www.w3.org/2000/svg">
<path d="M7.25 10.0833C6.86806 10.0833 6.5434 9.94966 6.27604 9.6823C6.00868 9.41494 5.875 9.09028 5.875 8.70834C5.875 8.65487 5.87882 8.59941 5.88646 8.54196C5.8941 8.48482 5.90556 8.43334 5.92083 8.38751L2.68958 6.50834C2.55972 6.62292 2.41458 6.7126 2.25417 6.77738C2.09375 6.84246 1.92569 6.87501 1.75 6.87501C1.36806 6.87501 1.0434 6.74132 0.776042 6.47396C0.508681 6.2066 0.375 5.88195 0.375 5.50001C0.375 5.11806 0.508681 4.79341 0.776042 4.52605C1.0434 4.25869 1.36806 4.12501 1.75 4.12501C1.92569 4.12501 2.09375 4.15739 2.25417 4.22217C2.41458 4.28726 2.55972 4.37709 2.68958 4.49167L5.92083 2.61251C5.90556 2.56667 5.8941 2.51519 5.88646 2.45805C5.87882 2.4006 5.875 2.34514 5.875 2.29167C5.875 1.90973 6.00868 1.58507 6.27604 1.31771C6.5434 1.05035 6.86806 0.916672 7.25 0.916672C7.63194 0.916672 7.9566 1.05035 8.22396 1.31771C8.49132 1.58507 8.625 1.90973 8.625 2.29167C8.625 2.67362 8.49132 2.99827 8.22396 3.26563C7.9566 3.53299 7.63194 3.66667 7.25 3.66667C7.07431 3.66667 6.90625 3.63413 6.74583 3.56905C6.58542 3.50427 6.44028 3.41459 6.31042 3.3L3.07917 5.17917C3.09444 5.22501 3.1059 5.27649 3.11354 5.33363C3.12118 5.39107 3.125 5.44653 3.125 5.50001C3.125 5.55348 3.12118 5.60878 3.11354 5.66592C3.1059 5.72337 3.09444 5.77501 3.07917 5.82084L6.31042 7.70001C6.44028 7.58542 6.58542 7.49559 6.74583 7.43051C6.90625 7.36573 7.07431 7.33334 7.25 7.33334C7.63194 7.33334 7.9566 7.46702 8.22396 7.73438C8.49132 8.00174 8.625 8.32639 8.625 8.70834C8.625 9.09028 8.49132 9.41494 8.22396 9.6823C7.9566 9.94966 7.63194 10.0833 7.25 10.0833Z" fill="#A64EC5"/>
</svg>
