<svg width="14" height="14" viewBox="0 0 14 14" fill="none" xmlns="http://www.w3.org/2000/svg">
<path d="M10.9477 8.54625C10.775 8.71358 10.6957 8.95558 10.735 9.19291L11.3277 12.4729C11.3777 12.7509 11.2603 13.0322 11.0277 13.1929C10.7997 13.3596 10.4963 13.3796 10.2477 13.2462L7.295 11.7062C7.19233 11.6516 7.07833 11.6222 6.96167 11.6189H6.781C6.71833 11.6282 6.657 11.6482 6.601 11.6789L3.64767 13.2262C3.50167 13.2996 3.33633 13.3256 3.17433 13.2996C2.77967 13.2249 2.51633 12.8489 2.581 12.4522L3.17433 9.17225C3.21367 8.93291 3.13433 8.68958 2.96167 8.51958L0.554334 6.18625C0.353 5.99091 0.283 5.69758 0.375 5.43291C0.464334 5.16891 0.692334 4.97625 0.967667 4.93291L4.281 4.45224C4.533 4.42624 4.75433 4.27291 4.86767 4.04625L6.32767 1.05291C6.36233 0.986245 6.407 0.924911 6.461 0.872911L6.521 0.826245C6.55233 0.791578 6.58833 0.762911 6.62833 0.739578L6.701 0.712911L6.81433 0.666245H7.095C7.34567 0.692245 7.56633 0.842245 7.68167 1.06624L9.161 4.04625C9.26767 4.26425 9.475 4.41558 9.71433 4.45224L13.0277 4.93291C13.3077 4.97291 13.5417 5.16625 13.6343 5.43291C13.7217 5.70025 13.6463 5.99358 13.441 6.18625L10.9477 8.54625Z" fill="#FAB03A"/>
</svg>
